<?xml version="1.0" encoding="UTF-8" standalone="no"?><!DOCTYPE svg PUBLIC "-//W3C//DTD SVG 1.1//EN" "http://www.w3.org/Graphics/SVG/1.1/DTD/svg11.dtd"><svg width="100%" height="100%" viewBox="0 0 1890 1418" version="1.1" xmlns="http://www.w3.org/2000/svg" xmlns:xlink="http://www.w3.org/1999/xlink" xml:space="preserve" xmlns:serif="http://www.serif.com/" style="fill-rule:evenodd;clip-rule:evenodd;stroke-linejoin:round;stroke-miterlimit:2;"><rect x="0" y="0" width="1889.76" height="708.661" style="fill:#0075bf;"/><rect x="-0" y="708.661" width="1889.76" height="708.661" style="fill:#ffe900;"/><g><path d="M462.918,731.052l104.935,569.203c1.465,7.949 8.396,13.719 16.479,13.719l273.151,-0c8.618,-0 15.831,-6.537 16.676,-15.114l55.799,-566.372c6.88,-1.702 29.469,-9.134 23.618,-32.364c-0.361,-1.431 -0.239,-7.168 -9.248,-14.264c-0.143,-0.112 -0.634,-4.613 -14.888,-5.633c-4.219,-0.302 -46.407,-1.873 -468.292,-1.873c-14.542,0 -26.349,11.807 -26.349,26.349c0,14.542 11.807,26.349 26.349,26.349l1.77,-0Zm174.399,549.409l-7.814,-63.117l-42.857,0l11.635,63.117l39.036,-0Zm22.203,-63.117l7.814,63.117l34.322,-0l-2.017,-63.117l-40.119,0Zm69.924,0l2.016,63.117l43.499,-0l2.404,-63.117l-47.919,0Zm119.07,0l-41.339,0l-2.405,63.117l37.526,-0l6.218,-63.117Zm-37.577,-98.774l-2.628,68.984l43.14,0l6.684,-67.845c-8.963,-0.329 -23.623,-0.74 -47.196,-1.139Zm-242.777,-1.5l12.994,70.484l44.661,0l-8.719,-70.424c-15.373,-0.031 -31.668,-0.052 -48.936,-0.06Zm78.963,0.138l8.709,70.346l42.855,0l-2.24,-70.134c-15.124,-0.084 -31.528,-0.155 -49.324,-0.212Zm79.134,0.402l2.235,69.944l50.006,0l2.645,-69.415c-15.539,-0.192 -33.692,-0.373 -54.886,-0.529Zm134.796,-27.534l6.49,-65.88l-53.011,0l-2.461,64.601c24.085,0.423 39.332,0.876 48.982,1.279Zm-78.776,-1.722l2.444,-64.158l-61.448,0l2.032,63.608c22.02,0.159 40.858,0.346 56.972,0.55Zm-86.783,-0.737l-2.026,-63.421l-57.861,0l7.826,63.208c18.83,0.055 36.147,0.127 52.061,0.213Zm-132.152,-0.339c14.923,0.006 29.846,0.021 44.77,0.044l5.295,0.01l-7.817,-63.136l-54.552,0l11.63,63.082l0.674,-0Zm313.351,-155.951l-58.623,0l-2.403,63.079l54.811,0l6.215,-63.079Zm-274.791,63.079l-7.809,-63.079l-60.175,0l11.628,63.079l56.356,0Zm22.208,-63.079l7.809,63.079l60.597,0l-2.015,-63.079l-66.391,0Zm96.196,0l2.015,63.079l63.535,0l2.403,-63.079l-67.953,0Zm166.45,-102.141l-64.795,0l-2.756,72.352l60.423,-0l7.128,-72.352Zm-296.352,72.352l-8.957,-72.352l-66.359,0l13.338,72.352l61.978,-0Zm21.06,-72.352l8.957,72.352l69.128,-0l-2.311,-72.352l-75.774,0Zm105.579,0l2.311,72.352l70.04,-0l2.756,-72.352l-75.107,0Zm108.632,-97.488l-2.579,67.699l66.594,-0l6.617,-67.163c-15.155,-0.175 -37.548,-0.363 -70.632,-0.536Zm-328.678,-0.642l12.599,68.341l68.163,-0l-8.457,-68.308c-22.632,-0.016 -46.704,-0.028 -72.305,-0.033Zm102.325,0.059l8.454,68.282l78.51,-0l-2.177,-68.161c-25.511,-0.049 -53.681,-0.09 -84.787,-0.121Zm114.593,0.184l2.176,68.098l77.194,-0l2.584,-67.838c-23.066,-0.096 -50.153,-0.185 -81.954,-0.26Z"/><path d="M1083.43,658.133c0.749,-4.482 4.649,-7.903 9.342,-7.903c0.242,-0 0.483,0.009 0.721,0.027l295.762,9.062c2.573,0.079 4.999,1.22 6.701,3.152c1.701,1.932 2.527,4.482 2.28,7.045l-62.018,644.608c-0.436,4.531 -4.083,8.082 -8.624,8.396c-4.54,0.314 -8.642,-2.701 -9.698,-7.128c0,-0 -97.034,-407.01 -97.034,-407.01l-221.451,407.582c-2.162,3.979 -6.872,5.825 -11.161,4.375c-4.289,-1.45 -6.913,-5.776 -6.218,-10.25l101.4,-651.981l-0.002,0.025Z"/><path d="M1245.57,196.816c-0,-62.541 -51.282,-113.271 -114.582,-113.271c-63.301,-0 -114.582,50.73 -114.582,113.271c-0,62.541 51.281,113.271 114.582,113.271c63.3,-0 114.582,-50.734 114.582,-113.271Z"/><path d="M656.715,442.692l-58.976,168.898c-1.254,3.592 -1.249,7.503 0.015,11.091l8.969,25.464c3.075,8.729 12.643,13.312 21.372,10.238l163.959,-57.753c8.729,-3.074 13.313,-12.643 10.238,-21.371l-8.62,-24.474c-3.075,-8.729 -12.644,-13.312 -21.372,-10.238l-98.492,34.692l60.643,-170.518c1.285,-3.616 1.291,-7.563 0.016,-11.182l-8.62,-24.474c-3.075,-8.728 -12.643,-13.312 -21.372,-10.238l-148.539,52.321c-8.729,3.075 -13.313,12.643 -10.238,21.372l8.62,24.474c3.075,8.729 12.644,13.312 21.372,10.238l81.025,-28.54Z"/><path d="M652.628,331.585c-4.594,-0.524 -8.168,-4.429 -8.168,-9.163c-0,-5.09 4.132,-9.223 9.222,-9.223l1.214,0.04l-0,0.04c0.097,0.012 0.193,0.027 0.289,0.042c-0.09,-0.047 -0.186,-0.075 -0.289,-0.082l0,-0.004l596.163,1.698c2.69,0.007 5.246,1.178 7.008,3.211c51.1,58.942 136.643,258.851 143.104,304.901c0.364,2.588 -0.378,5.209 -2.043,7.224c-1.665,2.014 -4.1,3.236 -6.71,3.367l-296.924,14.857c-5.006,0.251 -9.312,-3.508 -9.74,-8.502c-7.675,-89.532 -48.041,-173.471 -58.64,-195.505l-374.486,-112.901Z"/></g></svg>